# xmcd
#
# Track frame offsets: 
#        150
#        17927
#        29292
#        48342
#        69747
#        86650
#        101242
#        118310
#        134700
#        153122
#        166522
#        187722
#        204230
#
# Disc length: 2957 seconds
#
# Revision: 49
# Processed by: cddbd v1.5.2PL0 Copyright (c) Steve Scherf et al.
# Submitted via: ExactAudioCopyFreeDBPlugin 1.0
#
DISCID=aa0b8b0d
DTITLE=Michael Bublé - It's Time
DYEAR=2005
DGENRE=Jazz
TTITLE0=Feeling Good
TTITLE1=A Foggy Day (In London Town)
TTITLE2=You Don't Know Me
TTITLE3=Quando, Quando, Quando (Duet with Nelly Furtado)
TTITLE4=Home
TTITLE5=Can't Buy Me Love
TTITLE6=The More I See You
TTITLE7=Save The Last Dance For Me
TTITLE8=Try A Little Tenderness
TTITLE9=How Sweet It Is
TTITLE10=Song For You (feat. Chris Botti)
TTITLE11=I've Got You Under My Skin
TTITLE12=You And I
EXTD=repriserecords.com YEAR: 2005
EXTT0=
EXTT1=
EXTT2=
EXTT3=
EXTT4=
EXTT5=
EXTT6=
EXTT7=
EXTT8=
EXTT9=
EXTT10=
EXTT11=
EXTT12=
PLAYORDER=
